<?xml version="1.0" encoding="UTF-8"?>
<!DOCTYPE svg PUBLIC "-//W3C//DTD SVG 1.1//EN" "http://www.w3.org/Graphics/SVG/1.1/DTD/svg11.dtd">
<!-- Creator: CorelDRAW 2018 (64-Bit Evaluation Version) -->
<svg xmlns="http://www.w3.org/2000/svg" xml:space="preserve" width="1357px" height="1622px" version="1.1" style="shape-rendering:geometricPrecision; text-rendering:geometricPrecision; image-rendering:optimizeQuality; fill-rule:evenodd; clip-rule:evenodd"
viewBox="0 0 1294.44 1546.65"
 xmlns:xlink="http://www.w3.org/1999/xlink">
 <defs>
  <style type="text/css">
   <![CDATA[
    .fil0 {fill:#ACDDF5}
    .fil11 {fill:#11B4C4}
    .fil6 {fill:#126767}
    .fil16 {fill:#2B2A29}
    .fil14 {fill:#3E623B}
    .fil13 {fill:#552A69}
    .fil3 {fill:#772E84}
    .fil1 {fill:#824290}
    .fil9 {fill:#8D9093}
    .fil8 {fill:#8FAC4D}
    .fil15 {fill:#9D2239}
    .fil5 {fill:#CD304C}
    .fil12 {fill:#D04627}
    .fil7 {fill:#E73764}
    .fil10 {fill:#EC6790}
    .fil2 {fill:#F29320}
    .fil4 {fill:#FAB931}
    .fil17 {fill:#045175;fill-rule:nonzero}
   ]]>
  </style>
 </defs>
 <g id="Layer_x0020_1">
  <metadata id="CorelCorpID_0Corel-Layer"/>
  <g id="_1838124523808">
   <path class="fil0" d="M440.92 201.74c53.85,-0.1 111.25,-4.26 165.52,-6.71 26.95,-1.21 54.39,-1.86 81.39,-3.09 17.55,-0.81 66.94,-11.54 69.94,15.48 2.17,-7.22 0.2,-1.72 4.7,-5.8 32.08,2.33 63.56,6.95 95.43,9.14 48.27,3.33 44.95,7.65 70.36,31.88l102.61 99.67 28.43 69.06c10.79,10.86 22.49,25.57 33.86,38.82 15.19,17.73 13.66,27.18 15.23,56.42 2.3,42.82 9.48,88.62 9.25,130.76 -2.98,24.04 -21.44,49.53 -26.52,74.53l-50.56 -2.36 -34.58 -2.32 0 94.17c-7.5,9.11 -58.9,41.43 -73.37,51.3 -19.52,13.3 -55.78,41.68 -76.33,50.15l22.75 164.67c-11.63,3.4 -38.69,15.26 -48.64,15.85 -11.2,0.66 -39.12,-10.25 -46.64,-16.37 -6.73,-7.13 -20.24,-101.28 -22.36,-115.2 -3.33,-21.81 -1.69,-20.52 -17.86,-29.71 -16.77,-9.52 -105.88,-63.09 -111.96,-72.4 -5.45,-12.52 -14.44,-39.86 -24.33,-44.61l-169.68 -35.81 -6.86 -35.66 -21.81 -2.32c-21.47,-4.9 -36.31,-19.6 -40.1,-41.5 -3.52,-5.03 -1.37,-3.03 -8.59,-4.39 -36.13,-6.86 -26.03,18.03 -74.68,-29.67l-94.54 -84.26c-10.32,-10.97 -11.03,-130.66 -14.54,-164.02 3.41,-11.54 3.63,-7.6 13.18,-14.62l202.8 -171.38c-32.56,-47.17 44.93,-73.74 48.5,-19.7zm166.06 -201.74l80.89 0c67.11,3.95 133.43,17.75 193.86,41.69 97.14,38.48 156.5,83.6 228.73,155.78 193.4,193.26 230.93,514.82 93.3,753.52 -70.54,122.35 -155.85,199.39 -284.3,264.14 -162.53,81.93 -382.97,80.7 -545.48,-1 -87.55,-44.01 -161.58,-97.63 -222.17,-174.26 -34.84,-44.06 -35.65,-48.35 -63.56,-94.42 -46.47,-76.71 -79.9,-203.31 -79.9,-310.56 0,-208.44 106.79,-390.6 238.07,-495.19 7.95,-6.34 13.32,-11.15 21.82,-16.92 16.21,-11 28.72,-20.95 46.16,-31.34 9.65,-5.75 15.33,-9.02 24.83,-13.93 8.82,-4.55 12.99,-7.99 22.77,-13 10.11,-5.17 16.61,-7.06 26.88,-11.86l85.05 -31.19c42.71,-11.61 87.59,-18.79 133.05,-21.46z"/>
   <path class="fil1" d="M463.39 653.05c15.49,47.26 -2.3,80.42 -54.5,78.23l21.81 2.32 6.86 35.66 169.68 35.81c9.89,4.75 18.88,32.09 24.33,44.61l5.06 -0.22c11.07,-8.35 11.43,-11.8 18.96,-20.48 7.26,-8.37 11.74,-12.11 18.23,-20.44 11.38,-14.62 24.98,-28.88 38.47,-42.61 -4.21,-8.15 -5.12,-14.91 0.02,-22.81l15.51 -0.43c-0.75,-0.44 -2.03,-1.68 -2.42,-1.01l-28.19 -40.62c-9.66,-16.47 -7.86,-21.46 -16.75,-37l-32.37 -76.66c-34.58,10 -45.54,-1.54 -61.01,-18.47 -3.34,4.07 -1.3,2.13 -6.35,6.39l-117.34 77.73z"/>
   <path class="fil2" d="M725 341.37c-14.12,2.18 -27.58,8.25 -40.29,13.04 -17.75,6.68 -30.11,7.95 -33.27,17.94 0.05,14.1 -0.64,15.65 -8.34,24.33 2.52,8.9 57.48,87.99 70.68,108.1 1.79,2.73 2.38,4.34 5.11,6.99 5.5,5.33 0.07,2.46 7.41,4.55 17.47,-20.53 34.93,-47.3 54.05,-65.6l28.6 27.34c17.31,18.15 35.09,43.06 57.25,59.06 11.49,8.3 27.23,14.23 34.54,26.05l13.83 34.72c10.43,-6.07 8.08,-19.14 10.71,-44.31l10.79 -148.13 -12.55 -6.21 -0.63 -13.86c-17.81,-2.29 -57.57,-19.6 -77.06,-26.68 -15.55,-5.64 -27.16,-8.75 -40.49,-13.7 -12.84,-4.77 -25.83,-8.91 -38.39,-13.95 -6.72,10.07 -21.98,25.2 -41.95,10.32z"/>
   <path class="fil3" d="M726.3 516.32c-13.09,4.97 -16.43,-0.37 -29,0.26 -10.4,0.52 -17.16,6.06 -29.6,8.74 14.37,34.81 -2.34,45.8 -19.61,62.08l32.37 76.66c8.89,15.54 7.09,20.53 16.75,37l28.19 40.62c0.39,-0.67 1.67,0.57 2.42,1.01l1.81 1.19c10.72,-2.98 33.83,-33.78 41.95,-43.44l106.13 -114.05c9.94,-9.74 10.06,-17.26 23.03,-23.22 -7.31,-11.82 -23.05,-17.75 -34.54,-26.05 -22.16,-16 -39.94,-40.91 -57.25,-59.06l-28.6 -27.34c-19.12,18.3 -36.58,45.07 -54.05,65.6z"/>
   <path class="fil4" d="M757.77 207.42l-11.49 86.56c17.65,4.16 24.25,15.16 20.67,37.07 12.56,5.04 25.55,9.18 38.39,13.95 13.33,4.95 24.94,8.06 40.49,13.7 19.49,7.08 59.25,24.39 77.06,26.68 5.14,-14.92 17.29,-14.29 27.69,-3.49 24.09,-6.24 54.98,-34.39 80.29,-39.58l-102.61 -99.67c-25.41,-24.23 -22.09,-28.55 -70.36,-31.88 -31.87,-2.19 -63.35,-6.81 -95.43,-9.14 -4.5,4.08 -2.53,-1.42 -4.7,5.8z"/>
   <path class="fil5" d="M380.99 417.82l-0.21 15.76c6.46,12.88 13.16,77.85 16.46,98.96 2.77,17.78 5.32,32.95 7.95,49 2.35,14.29 7.89,33.9 5.36,47.78 16.44,-0.97 27.55,3.56 39.52,8.6 10.75,-5.98 32.7,-45.19 40.97,-57.04l81.68 -120.9c13.04,-21.44 29.71,-40.96 40.79,-62.08 -4.99,-7.71 -6.01,-4.15 -9.48,-17.51 -19.08,6.86 -37.83,8.73 -58.37,11.76 -18.34,2.71 -31.72,5.2 -50.8,8.61 -19.13,3.42 -100.03,18.64 -113.87,17.06z"/>
   <path class="fil6" d="M927.29 599.09l1.8 14.97 -7.89 2.97 -0.88 53.62c4.66,4.48 -0.52,1.8 7.99,5.7 22.8,9.51 21.67,26.64 10.94,45.51 11.25,10.66 52.51,68.5 65.56,75.64l0.01 -89.87 35.74 1.91 50.56 2.36c5.08,-25 23.54,-50.49 26.52,-74.53l-135.77 -67.81 66.76 -140.41c-12.18,12.09 -21.5,28.21 -31.88,42.7 -10.65,14.86 -18.84,26.95 -29.46,42.05 -19.12,27.22 -40.38,57.97 -60,85.19z"/>
   <path class="fil7" d="M381.67 643.95c12.31,-7.02 9.97,-8.85 28.88,-14.63 2.53,-13.88 -3.01,-33.49 -5.36,-47.78 -2.63,-16.05 -5.18,-31.22 -7.95,-49 -3.3,-21.11 -10,-86.08 -16.46,-98.96 -7.66,-14.36 8.59,-12.86 -11.65,-15.63 -7.99,-1.09 -17,0.75 -29.22,-1.17 -9.98,-1.58 -41.29,-4.14 -51.62,-4.42 -25.26,-0.71 -90.51,-10.18 -107.89,-4.92 4.36,13.04 49.83,57.97 61.19,74.54l140.08 161.97z"/>
   <path class="fil7" d="M407.75 227.12l7.14 0.36c-6.57,32.25 -11.03,62.4 -17.01,95.85 -5.83,32.62 -12.4,61.74 -16.89,94.49 13.84,1.58 94.74,-13.64 113.87,-17.06 19.08,-3.41 32.46,-5.9 50.8,-8.61 20.54,-3.03 39.29,-4.9 58.37,-11.76 0.23,-9.28 3.04,-15.25 4.76,-20.93 -1.64,-2.11 -5.88,-7.56 -8.04,-9.89 -6.31,-6.8 -5.44,-4.52 -11.66,-9.54 -8.12,-6.56 -13.45,-10.11 -21.2,-17.38l-55.64 -45.74c-16.89,-12.75 -61,-56.94 -77.56,-57.52 -9.35,3.98 -12.67,10.5 -26.94,7.73z"/>
   <path class="fil8" d="M939.25 721.86c-14.25,6.38 -26.13,10.98 -39.18,-3.47 -10.14,4.28 -68.97,55.21 -80.84,65.66 -26.03,22.9 -50.16,39.91 -76.46,64.86l113.51 53.93c20.55,-8.47 56.81,-36.85 76.33,-50.15 14.47,-9.87 65.87,-42.19 73.37,-51.3l0 -94.17 34.58 2.32 -35.74 -1.91 -0.01 89.87c-13.05,-7.14 -54.31,-64.98 -65.56,-75.64z"/>
   <path class="fil9" d="M856.28 902.84l-113.51 -53.93 -99.11 3.54c-0.8,-0.16 -1.83,-0.64 -2.46,-0.8l-4.57 -2.19 -5.06 0.22c6.08,9.31 95.19,62.88 111.96,72.4 16.17,9.19 14.53,7.9 17.86,29.71 2.12,13.92 15.63,108.07 22.36,115.2 7.52,6.12 35.44,17.03 46.64,16.37 9.95,-0.59 37.01,-12.45 48.64,-15.85l-22.75 -164.67z"/>
   <path class="fil5" d="M368.79 689.78c-3.3,-23.55 3.49,-31.42 12.88,-45.83l-140.08 -161.97c-11.36,-16.57 -56.83,-61.5 -61.19,-74.54l-3.96 0c3.51,33.36 4.22,153.05 14.54,164.02l94.54 84.26c48.65,47.7 38.55,22.81 74.68,29.67 7.22,1.36 5.07,-0.64 8.59,4.39z"/>
   <path class="fil10" d="M176.44 407.44l3.96 0c17.38,-5.26 82.63,4.21 107.89,4.92 10.33,0.28 41.64,2.84 51.62,4.42 12.22,1.92 21.23,0.08 29.22,1.17 20.24,2.77 3.99,1.27 11.65,15.63l0.21 -15.76c4.49,-32.75 11.06,-61.87 16.89,-94.49 5.98,-33.45 10.44,-63.6 17.01,-95.85l-7.14 -0.36 -15.33 -5.68 -202.8 171.38c-9.55,7.02 -9.77,3.08 -13.18,14.62z"/>
   <path class="fil10" d="M440.92 201.74l-1.42 7.55c1.66,1.66 1.34,1.75 5.32,4.06l26 10.02c11.81,4.43 22.49,7.94 34.91,12.75 22.58,8.76 45.75,16.36 69.8,25.51 20.78,7.91 126.77,47.63 140.39,49.01 6.62,-11.58 12.85,-18.2 30.36,-16.66l11.49 -86.56c-3,-27.02 -52.39,-16.29 -69.94,-15.48 -27,1.23 -54.44,1.88 -81.39,3.09 -54.27,2.45 -111.67,6.61 -165.52,6.71z"/>
   <path class="fil11" d="M1048.63 429.15l-66.76 140.41 135.77 67.81c0.23,-42.14 -6.95,-87.94 -9.25,-130.76 -1.57,-29.24 -0.04,-38.69 -15.23,-56.42 -11.37,-13.25 -23.07,-27.96 -33.86,-38.82l-10.67 17.78z"/>
   <path class="fil12" d="M950.58 381.89c7.12,14.79 -0.27,21.99 -14.51,23.56l-10.79 148.13c-2.63,25.17 -0.28,38.24 -10.71,44.31l0.23 1.05 12.49 0.15c19.62,-27.22 40.88,-57.97 60,-85.19 10.62,-15.1 18.81,-27.19 29.46,-42.05 10.38,-14.49 19.7,-30.61 31.88,-42.7l10.67 -17.78 -28.43 -69.06c-25.31,5.19 -56.2,33.34 -80.29,39.58z"/>
   <path class="fil13" d="M729.63 743.88l2.91 7.5 162.13 -42.66c-2.72,-22.86 10.02,-35.59 33.64,-32.37 -8.51,-3.9 -3.33,-1.22 -7.99,-5.7l0.88 -53.62 -9.12 -3.67c-0.48,-12.04 -1.41,-6.23 2.72,-14.42l-0.23 -1.05 -13.83 -34.72c-12.97,5.96 -13.09,13.48 -23.03,23.22l-106.13 114.05c-8.12,9.66 -31.23,40.46 -41.95,43.44z"/>
   <path class="fil14" d="M732.54 751.38c-0.77,15.88 -4.24,15.02 -20.25,14.55 -13.49,13.73 -27.09,27.99 -38.47,42.61 -6.49,8.33 -10.97,12.07 -18.23,20.44 -7.53,8.68 -7.89,12.13 -18.96,20.48l4.57 2.19c0.63,0.16 1.66,0.64 2.46,0.8l99.11 -3.54c26.3,-24.95 50.43,-41.96 76.46,-64.86 11.87,-10.45 70.7,-61.38 80.84,-65.66l-5.4 -9.67 -162.13 42.66z"/>
   <path class="fil5" d="M434.69 219.39c16.56,0.58 60.67,44.77 77.56,57.52l55.64 45.74c7.75,7.27 13.08,10.82 21.2,17.38 6.22,5.02 5.35,2.74 11.66,9.54 2.16,2.33 6.4,7.78 8.04,9.89 24.48,-9.62 30.32,-9.38 42.65,12.89 3.16,-9.99 15.52,-11.26 33.27,-17.94 12.71,-4.79 26.17,-10.86 40.29,-13.04 -7,-7.67 -12.16,-14.81 -9.08,-30.73 -13.62,-1.38 -119.61,-41.1 -140.39,-49.01 -24.05,-9.15 -47.22,-16.75 -69.8,-25.51 -12.42,-4.81 -23.1,-8.32 -34.91,-12.75l-26 -10.02c-3.98,-2.31 -3.66,-2.4 -5.32,-4.06l-4.81 10.1z"/>
   <path class="fil15" d="M450.07 637.92c5.27,7.44 8.51,8.12 13.32,15.13l117.34 -77.73c5.05,-4.26 3.01,-2.32 6.35,-6.39 -13.7,-39.61 5.25,-71.68 47.71,-67.69 -12.03,-6.97 -8.95,5.55 -10.05,-17.97 -0.37,-7.97 0.36,-18.92 0.47,-27.23 0.25,-18.1 0.58,-36.19 0.87,-54.3l-12.57 -3.84c-11.08,21.12 -27.75,40.64 -40.79,62.08l-81.68 120.9c-8.27,11.85 -30.22,51.06 -40.97,57.04z"/>
   <path class="fil16" d="M381.67 643.95c-9.39,14.41 -16.18,22.28 -12.88,45.83 3.79,21.9 18.63,36.6 40.1,41.5 52.2,2.19 69.99,-30.97 54.5,-78.23 -4.81,-7.01 -8.05,-7.69 -13.32,-15.13 -11.97,-5.04 -23.08,-9.57 -39.52,-8.6 -18.91,5.78 -16.57,7.61 -28.88,14.63z"/>
   <path class="fil16" d="M587.08 568.93c15.47,16.93 26.43,28.47 61.01,18.47 17.27,-16.28 33.98,-27.27 19.61,-62.08 -5.6,-13.67 -15.7,-21.13 -32.91,-24.08 -42.46,-3.99 -61.41,28.08 -47.71,67.69z"/>
   <path class="fil5" d="M626.08 401.74c-0.29,18.11 -0.62,36.2 -0.87,54.3 -0.11,8.31 -0.84,19.26 -0.47,27.23 1.1,23.52 -1.98,11 10.05,17.97 17.21,2.95 27.31,10.41 32.91,24.08 12.44,-2.68 19.2,-8.22 29.6,-8.74 12.57,-0.63 15.91,4.71 29,-0.26 -7.34,-2.09 -1.91,0.78 -7.41,-4.55 -2.73,-2.65 -3.32,-4.26 -5.11,-6.99 -13.2,-20.11 -68.16,-99.2 -70.68,-108.1l-17.02 5.06z"/>
   <path class="fil16" d="M392.42 221.44l15.33 5.68c14.27,2.77 17.59,-3.75 26.94,-7.73l4.81 -10.1 1.42 -7.55c-3.57,-54.04 -81.06,-27.47 -48.5,19.7z"/>
   <path class="fil16" d="M715.92 310.64c-3.08,15.92 2.08,23.06 9.08,30.73 19.97,14.88 35.23,-0.25 41.95,-10.32 3.58,-21.91 -3.02,-32.91 -20.67,-37.07 -17.51,-1.54 -23.74,5.08 -30.36,16.66z"/>
   <path class="fil16" d="M894.67 708.72l5.4 9.67c13.05,14.45 24.93,9.85 39.18,3.47 10.73,-18.87 11.86,-36 -10.94,-45.51 -23.62,-3.22 -36.36,9.51 -33.64,32.37z"/>
   <path class="fil16" d="M608.79 359.46c-1.72,5.68 -4.53,11.65 -4.76,20.93 3.47,13.36 4.49,9.8 9.48,17.51l12.57 3.84 17.02 -5.06c7.7,-8.68 8.39,-10.23 8.34,-24.33 -12.33,-22.27 -18.17,-22.51 -42.65,-12.89z"/>
   <path class="fil16" d="M922.89 385.38l0.63 13.86 12.55 6.21c14.24,-1.57 21.63,-8.77 14.51,-23.56 -10.4,-10.8 -22.55,-11.43 -27.69,3.49z"/>
   <path class="fil16" d="M712.29 765.93c16.01,0.47 19.48,1.33 20.25,-14.55l-2.91 -7.5 -1.81 -1.19 -15.51 0.43c-5.14,7.9 -4.23,14.66 -0.02,22.81z"/>
   <path class="fil16" d="M921.2 617.03l7.89 -2.97 -1.8 -14.97 -12.49 -0.15c-4.13,8.19 -3.2,2.38 -2.72,14.42l9.12 3.67z"/>
  </g>
  <path class="fil17" d="M290.05 1312.36c0,9.86 1.71,20.1 5.12,30.72 10.62,-18.2 19.34,-37.16 26.16,-56.88 6.83,-19.71 11.66,-39.05 14.51,-58.01 2.84,-18.96 3.6,-36.96 2.27,-54.03 -1.33,-17.06 -4.55,-32.13 -9.67,-45.21 -5.12,-13.08 -12.32,-23.51 -21.61,-31.28 -9.29,-7.77 -20.38,-12.04 -33.27,-12.8 -15.55,-0.76 -30.71,3.41 -45.5,12.51 -14.79,9.1 -28.53,20.86 -41.23,35.27 -12.7,14.4 -24.27,30.52 -34.69,48.34 -10.43,17.82 -19.25,35.07 -26.45,51.75 -7.21,16.69 -12.51,31.85 -15.93,45.5 -3.41,13.65 -4.36,23.32 -2.84,29.01 1.14,4.17 -0.76,7.48 -5.69,9.95 -4.92,2.46 -11.37,3.79 -19.33,3.98 -7.97,0.19 -16.69,-0.76 -26.16,-2.84 -9.48,-2.09 -18.39,-5.41 -26.74,-9.96 -8.34,-4.55 -15.26,-10.42 -20.75,-17.63 -5.5,-7.2 -8.25,-15.73 -8.25,-25.59 0,-16.68 3.41,-34.31 10.24,-52.89 6.82,-18.58 16.39,-36.78 28.72,-54.6 12.32,-17.82 27.11,-34.6 44.36,-50.33 17.25,-15.74 36.11,-29.48 56.59,-41.24 20.47,-11.75 42.37,-20.66 65.69,-26.73 23.31,-6.06 47.3,-8.15 71.94,-6.25 32.23,2.27 58.67,10.71 79.34,25.31 20.66,14.59 36.21,32.79 46.63,54.59 10.43,21.81 16.31,46.26 17.64,73.37 1.32,27.11 -1.24,54.5 -7.68,82.18 -6.45,27.68 -16.4,54.51 -29.86,80.48 -13.46,25.97 -29.48,48.62 -48.06,67.96 8.72,11.38 17.16,20.38 25.31,27.02 8.15,6.63 14.5,9.38 19.05,8.24 4.93,-1.51 6.73,-0.09 5.4,4.27 -1.32,4.36 -5.02,9.38 -11.09,15.07 -6.06,5.69 -13.93,10.71 -23.6,15.07 -9.67,4.36 -20.38,5.97 -32.13,4.83 -7.96,-0.75 -15.55,-3.98 -22.75,-9.66 -7.2,-5.69 -14.03,-12.89 -20.47,-21.62 -15.55,6.45 -30.91,9.48 -46.07,9.1 -15.17,-0.37 -29.2,-3.5 -42.09,-9.38 -12.89,-5.88 -24.07,-14.31 -33.55,-25.31 -9.48,-10.99 -16.31,-23.88 -20.48,-38.67 -4.93,-16.31 -7.3,-35.64 -7.11,-58.01 0.19,-22.37 3.13,-44.84 8.82,-67.4 5.69,-22.56 14.22,-43.79 25.59,-63.69 11.38,-19.91 25.78,-35.36 43.22,-46.36 8.73,-5.68 17.54,-8.24 26.45,-7.67 8.91,0.56 17.44,2.93 25.59,7.11 8.16,4.17 15.55,9.57 22.18,16.2 6.64,6.64 11.76,13.18 15.36,19.62 3.6,6.45 5.59,12.23 5.97,17.35 0.38,5.12 -1.7,8.25 -6.25,9.39 -6.83,1.89 -14.98,7.01 -24.46,15.35 -9.48,8.34 -18.77,18.86 -27.87,31.57 -9.1,12.7 -17.25,26.92 -24.45,42.65 -7.21,15.73 -11.57,31.75 -13.08,48.06 -1.9,21.23 1.8,34.98 11.09,41.23 9.29,6.26 20.38,5.59 33.27,-1.99 -4.93,-17.82 -7.02,-32.8 -6.26,-44.93 0.38,-10.24 3.13,-19.15 8.25,-26.73 5.12,-7.58 10.71,-13.36 16.78,-17.35 6.06,-3.98 11.56,-5.87 16.49,-5.68 4.93,0.19 7.39,2.74 7.39,7.67zm337.26 -64.83c0.76,5.69 0.47,13.27 -0.85,22.75 -1.33,9.48 -3.23,19.62 -5.69,30.43 -2.46,10.8 -4.93,21.8 -7.39,32.98 -2.47,11.19 -4.55,21.14 -6.26,29.86 -1.71,8.72 -2.56,15.64 -2.56,20.76 0,5.12 1.52,7.3 4.55,6.54 1.14,-0.38 2.84,-2.47 5.12,-6.26 2.27,-3.79 4.74,-8.72 7.39,-14.78 2.66,-6.07 5.5,-12.71 8.53,-19.91 3.04,-7.2 5.88,-14.31 8.54,-21.33 2.65,-7.01 4.92,-13.46 6.82,-19.33 1.9,-5.88 3.41,-10.52 4.55,-13.94 0.38,-1.89 2.18,-3.51 5.4,-4.83 3.23,-1.33 6.54,-1.99 9.96,-1.99 3.41,0 6.35,0.76 8.81,2.27 2.47,1.52 3.13,4.17 1.99,7.97 -3.79,12.89 -7.77,25.78 -11.94,38.67 -4.17,12.89 -8.72,25.02 -13.65,36.4 -4.93,11.37 -9.95,21.51 -15.07,30.42 -5.12,8.92 -10.34,15.83 -15.64,20.76 -4.17,3.8 -9.2,6.73 -15.07,8.82 -5.88,2.08 -11.95,3.22 -18.2,3.41 -6.26,0.19 -12.42,-0.85 -18.49,-3.13 -6.06,-2.27 -11.37,-5.68 -15.92,-10.23 -4.55,-4.55 -8.44,-10.91 -11.66,-19.06 -3.22,-8.15 -4.65,-15.45 -4.27,-21.89 -1.13,3.79 -3.03,7.86 -5.68,12.23 -2.66,4.36 -5.6,8.62 -8.82,12.79 -3.22,4.17 -6.44,7.96 -9.67,11.38 -3.22,3.41 -5.78,6.06 -7.68,7.96 -4.17,4.17 -9.76,7.01 -16.77,8.53 -7.02,1.52 -14.22,1.42 -21.61,-0.29 -7.4,-1.7 -14.22,-5.49 -20.48,-11.37 -6.26,-5.88 -10.9,-14.12 -13.93,-24.74 -3.42,-11.75 -4.93,-25.02 -4.55,-39.81 0.38,-14.79 1.7,-29.67 3.98,-44.65 2.27,-14.97 5.21,-29.48 8.81,-43.5 3.61,-14.03 7.3,-26.17 11.09,-36.4 2.28,-5.69 7.4,-9.67 15.36,-11.95 7.96,-2.27 16.3,-2.93 25.02,-1.99 8.72,0.95 16.59,3.42 23.61,7.4 7.01,3.98 10.71,9.19 11.09,15.64 0.38,3.79 -0.48,9.85 -2.56,18.2 -2.09,8.34 -4.55,17.63 -7.4,27.86 -2.84,10.24 -5.78,20.95 -8.81,32.14 -3.03,11.18 -5.5,21.32 -7.4,30.42 -1.89,9.1 -3.03,16.69 -3.41,22.75 -0.38,6.07 0.76,9.29 3.41,9.67 2.66,0.38 5.79,-2.08 9.39,-7.39 3.6,-5.31 7.39,-12.32 11.37,-21.04 3.98,-8.73 8.06,-18.58 12.23,-29.58 4.17,-10.99 8.06,-22.08 11.66,-33.27 3.6,-11.18 6.82,-21.71 9.67,-31.56 2.84,-9.86 5.21,-18.2 7.11,-25.03 1.51,-6.44 5.68,-11.09 12.51,-13.93 6.82,-2.85 13.93,-3.89 21.33,-3.13 7.39,0.76 14.31,3.41 20.76,7.96 6.44,4.55 10.23,11 11.37,19.34zm84.17 101.23c0,4.93 0.57,10.15 1.71,15.64 1.14,5.5 2.94,10.62 5.4,15.36 2.47,4.74 5.4,8.62 8.82,11.66 3.41,3.03 7.2,4.36 11.37,3.98 4.93,-0.38 10.81,-3.41 17.63,-9.1 6.83,-5.69 13.65,-13.18 20.48,-22.46 6.82,-9.29 13.36,-20.01 19.62,-32.14 6.25,-12.13 11.66,-25.02 16.21,-38.67 1.13,-3.04 3.22,-4.84 6.25,-5.41 3.04,-0.56 6.26,-0.47 9.67,0.29 3.41,0.76 6.26,1.99 8.53,3.7 2.28,1.7 3.22,3.31 2.85,4.83 -6.45,15.92 -12.42,30.24 -17.92,42.94 -5.5,12.7 -11.28,24.17 -17.35,34.41 -6.06,10.23 -12.6,19.43 -19.62,27.58 -7.01,8.15 -15.26,15.64 -24.74,22.47 -8.72,6.44 -18.39,11.09 -29,13.93 -10.62,2.84 -21.05,3.6 -31.28,2.28 -10.24,-1.33 -19.91,-5.03 -29.01,-11.1 -9.1,-6.06 -16.49,-14.97 -22.18,-26.73 -5.31,-10.23 -8.53,-21.8 -9.67,-34.69 -1.13,-12.89 -0.76,-25.97 1.14,-39.24 1.9,-13.27 5.31,-26.16 10.24,-38.67 4.93,-12.52 10.8,-23.89 17.63,-34.13 10.62,-15.54 23.6,-26.35 38.96,-32.42 15.35,-6.06 29.86,-7.67 43.5,-4.83 13.65,2.84 24.84,9.86 33.56,21.04 8.72,11.19 12.13,26.07 10.24,44.65 -1.14,8.72 -3.98,18.39 -8.53,29 -4.55,10.62 -10.53,19.72 -17.92,27.3 -7.39,7.59 -15.92,12.7 -25.59,15.36 -9.67,2.65 -20,0.38 -31,-6.83zm45.5 -89.86c-3.79,0.76 -8.06,3.04 -12.8,6.83 -4.73,3.79 -9.19,8.72 -13.36,14.79 -4.17,6.06 -7.87,12.89 -11.09,20.47 -3.22,7.58 -5.21,15.17 -5.97,22.75 6.44,1.52 12.98,-1.14 19.62,-7.96 6.63,-6.83 12.23,-14.51 16.78,-23.04 4.55,-8.53 7.67,-16.39 9.38,-23.6 1.71,-7.2 0.85,-10.62 -2.56,-10.24zm312.8 -152.42c-3.41,2.28 -7.96,10.53 -13.65,24.74 -5.68,14.22 -11.84,31.57 -18.48,52.04 -6.64,20.48 -13.08,42.28 -19.34,65.41 -6.25,23.12 -11.47,44.55 -15.64,64.26 -4.17,19.72 -6.63,36.12 -7.39,49.2 -0.76,13.08 0.95,19.62 5.12,19.62 3.41,0 7.77,-3.51 13.08,-10.52 5.31,-7.02 10.71,-15.36 16.21,-25.03 5.49,-9.66 10.52,-19.52 15.07,-29.57 4.55,-10.05 7.77,-17.91 9.67,-23.6 1.13,-3.04 3.22,-5.03 6.25,-5.97 3.04,-0.95 6.16,-1.14 9.39,-0.57 3.22,0.57 5.97,1.8 8.24,3.69 2.28,1.9 3.04,4.18 2.28,6.83 -2.28,7.58 -5.22,16.21 -8.82,25.88 -3.6,9.66 -7.77,19.62 -12.51,29.85 -4.74,10.24 -9.95,20.48 -15.64,30.72 -5.69,10.23 -11.75,19.52 -18.2,27.86 -7.58,9.86 -16.97,17.16 -28.15,21.9 -11.19,4.74 -22.18,6.45 -32.99,5.12 -10.8,-1.33 -20.28,-5.97 -28.43,-13.94 -8.16,-7.96 -12.99,-19.9 -14.51,-35.83 -7.58,15.17 -16.49,26.83 -26.73,34.98 -10.23,8.15 -20.38,13.18 -30.42,15.07 -10.05,1.9 -19.53,0.67 -28.44,-3.69 -8.91,-4.36 -16.02,-11.66 -21.33,-21.9 -5.68,-11.37 -9.29,-24.74 -10.8,-40.1 -1.52,-15.35 -1.05,-31.09 1.42,-47.2 2.46,-16.11 6.82,-31.85 13.08,-47.21 6.26,-15.35 14.12,-28.53 23.6,-39.52 9.48,-11 20.48,-19.15 32.99,-24.46 12.51,-5.31 26.54,-6.06 42.08,-2.27 4.93,1.14 8.91,2.75 11.95,4.83 3.03,2.09 5.49,3.89 7.39,5.41 1.9,1.51 3.32,2.55 4.27,3.12 0.94,0.57 1.61,-0.09 1.99,-1.99 1.51,-6.06 3.6,-15.64 6.25,-28.72 2.66,-13.08 5.69,-26.82 9.1,-41.23 3.42,-14.41 7.3,-28.06 11.66,-40.95 4.36,-12.89 9.01,-22.18 13.94,-27.87 7.2,-8.34 16.68,-12.51 28.43,-12.51 11.76,0 22.75,1.99 32.99,5.97 10.24,3.98 18.2,8.82 23.88,14.5 5.69,5.69 6.07,10.24 1.14,13.65zm-187.11 265.6c4.55,0 9.2,-4.36 13.93,-13.08 4.74,-8.72 9.39,-19.15 13.94,-31.28 4.55,-12.13 8.72,-24.64 12.51,-37.54 3.79,-12.89 7.2,-23.88 10.24,-32.98 -7.97,-7.21 -15.45,-9.39 -22.47,-6.54 -7.01,2.84 -13.27,8.53 -18.77,17.06 -5.49,8.53 -9.95,18.86 -13.36,31 -3.41,12.13 -5.59,23.6 -6.54,34.4 -0.95,10.81 -0.66,20.1 0.85,27.87 1.52,7.77 4.74,11.47 9.67,11.09zm361.71 -124.55c0.76,5.69 0.48,13.27 -0.85,22.75 -1.33,9.48 -3.22,19.62 -5.69,30.43 -2.46,10.8 -4.93,21.8 -7.39,32.98 -2.47,11.19 -4.55,21.14 -6.26,29.86 -1.7,8.72 -2.56,15.64 -2.56,20.76 0,5.12 1.52,7.3 4.55,6.54 1.14,-0.38 2.85,-2.47 5.12,-6.26 2.28,-3.79 4.74,-8.72 7.4,-14.78 2.65,-6.07 5.49,-12.71 8.53,-19.91 3.03,-7.2 5.87,-14.31 8.53,-21.33 2.65,-7.01 4.93,-13.46 6.82,-19.33 1.9,-5.88 3.41,-10.52 4.55,-13.94 0.38,-1.89 2.18,-3.51 5.41,-4.83 3.22,-1.33 6.54,-1.99 9.95,-1.99 3.41,0 6.35,0.76 8.81,2.27 2.47,1.52 3.13,4.17 1.99,7.97 -3.79,12.89 -7.77,25.78 -11.94,38.67 -4.17,12.89 -8.72,25.02 -13.65,36.4 -4.93,11.37 -9.95,21.51 -15.07,30.42 -5.12,8.92 -10.33,15.83 -15.64,20.76 -4.17,3.8 -9.19,6.73 -15.07,8.82 -5.88,2.08 -11.94,3.22 -18.2,3.41 -6.26,0.19 -12.42,-0.85 -18.48,-3.13 -6.07,-2.27 -11.38,-5.68 -15.93,-10.23 -4.55,-4.55 -8.44,-10.91 -11.66,-19.06 -3.22,-8.15 -4.64,-15.45 -4.26,-21.89 -1.14,3.79 -3.04,7.86 -5.69,12.23 -2.65,4.36 -5.59,8.62 -8.82,12.79 -3.22,4.17 -6.44,7.96 -9.67,11.38 -3.22,3.41 -5.78,6.06 -7.67,7.96 -4.17,4.17 -9.77,7.01 -16.78,8.53 -7.01,1.52 -14.22,1.42 -21.61,-0.29 -7.4,-1.7 -14.22,-5.49 -20.48,-11.37 -6.25,-5.88 -10.9,-14.12 -13.93,-24.74 -3.41,-11.75 -4.93,-25.02 -4.55,-39.81 0.38,-14.79 1.71,-29.67 3.98,-44.65 2.28,-14.97 5.21,-29.48 8.82,-43.5 3.6,-14.03 7.3,-26.17 11.09,-36.4 2.27,-5.69 7.39,-9.67 15.35,-11.95 7.96,-2.27 16.31,-2.93 25.03,-1.99 8.72,0.95 16.58,3.42 23.6,7.4 7.01,3.98 10.71,9.19 11.09,15.64 0.38,3.79 -0.47,9.85 -2.56,18.2 -2.09,8.34 -4.55,17.63 -7.39,27.86 -2.85,10.24 -5.79,20.95 -8.82,32.14 -3.03,11.18 -5.5,21.32 -7.39,30.42 -1.9,9.1 -3.04,16.69 -3.42,22.75 -0.37,6.07 0.76,9.29 3.42,9.67 2.65,0.38 5.78,-2.08 9.38,-7.39 3.6,-5.31 7.4,-12.32 11.38,-21.04 3.98,-8.73 8.05,-18.58 12.22,-29.58 4.17,-10.99 8.06,-22.08 11.66,-33.27 3.6,-11.18 6.83,-21.71 9.67,-31.56 2.84,-9.86 5.21,-18.2 7.11,-25.03 1.52,-6.44 5.69,-11.09 12.51,-13.93 6.83,-2.85 13.94,-3.89 21.33,-3.13 7.39,0.76 14.31,3.41 20.76,7.96 6.44,4.55 10.24,11 11.37,19.34z"/>
  <path class="fil17" d="M428.96 1544.47l0 -82.13 43.3 0 0 8.96 -33.54 0 0 23.55 33.54 0 0 9.07 -33.54 0 0 31.47 33.54 0 0 9.08 -43.3 0zm94.29 -25.39c0,-5.72 -1.59,-10.33 -4.77,-13.82 -3.18,-3.5 -7.37,-5.25 -12.58,-5.25 -5.19,0 -9.25,1.59 -12.16,4.77 -2.92,3.18 -4.38,7.56 -4.38,13.17 0,6.32 1.47,11.28 4.42,14.84 2.97,3.58 7.05,5.36 12.24,5.36 5.4,0 9.61,-1.68 12.65,-5.05 3.05,-3.35 4.58,-8.04 4.58,-14.02zm8.5 -61.57l0 86.96 -8.5 0 0 -9.29c-2.03,3.7 -4.64,6.53 -7.85,8.51 -3.22,1.97 -6.82,2.96 -10.78,2.96 -7.37,0 -13.31,-2.52 -17.81,-7.6 -4.5,-5.07 -6.75,-11.77 -6.75,-20.12 0,-8.4 2.2,-15.13 6.62,-20.12 4.4,-5.02 10.28,-7.53 17.61,-7.53 4.25,0 7.97,0.96 11.11,2.9 3.14,1.93 5.67,4.82 7.62,8.63l0 -45.3 8.73 0zm22.24 35.61l0 25.27c0,7.38 1.1,12.53 3.28,15.47 2.2,2.93 5.88,4.41 11.08,4.41 5.19,0 8.87,-1.46 11.03,-4.35 2.15,-2.91 3.22,-8.08 3.22,-15.53l0 -25.27 8.96 0 0 29.98c0,7.74 -1.97,13.6 -5.94,17.58 -3.96,3.98 -9.8,5.97 -17.5,5.97 -7.62,0 -13.42,-1.99 -17.38,-5.99 -3.96,-4 -5.93,-9.86 -5.93,-17.56l0 -29.98 9.18 0zm90.03 39.17l0 10.23c-2.32,1.38 -4.92,2.41 -7.83,3.1 -2.9,0.69 -6.04,1.03 -9.41,1.03 -7.92,0 -14.3,-2.51 -19.14,-7.54 -4.84,-5.04 -7.28,-11.64 -7.28,-19.84 0,-8.23 2.51,-14.95 7.53,-20.16 5.01,-5.22 11.43,-7.83 19.24,-7.83 2.83,0 5.61,0.31 8.33,0.9 2.72,0.6 5.26,1.48 7.66,2.65l0 9.43c-2.24,-1.45 -4.56,-2.56 -6.95,-3.33 -2.4,-0.76 -4.83,-1.15 -7.3,-1.15 -5.76,0 -10.39,1.8 -13.86,5.42 -3.48,3.6 -5.23,8.41 -5.23,14.38 0,5.29 1.75,9.69 5.25,13.25 3.5,3.54 7.89,5.32 13.15,5.32 2.66,0 5.27,-0.48 7.81,-1.41 2.55,-0.94 5.21,-2.42 8.03,-4.45zm47.55 -12.98c0,-5.8 -1.59,-10.47 -4.75,-13.99 -3.15,-3.54 -7.27,-5.31 -12.36,-5.31 -5.27,0 -9.38,1.63 -12.33,4.89 -2.97,3.25 -4.44,7.79 -4.44,13.63 0,6.2 1.49,10.99 4.46,14.34 2.96,3.37 7.19,5.05 12.65,5.05 5.23,0 9.34,-1.63 12.31,-4.9 2.97,-3.27 4.46,-7.85 4.46,-13.71zm8.5 -26.19l0 51.35 -8.5 0 0 -9.3c-2.05,3.73 -4.69,6.58 -7.89,8.53 -3.19,1.98 -6.77,2.95 -10.74,2.95 -7.35,0 -13.3,-2.52 -17.8,-7.6 -4.5,-5.07 -6.76,-11.77 -6.76,-20.12 0,-8.44 2.18,-15.16 6.57,-20.16 4.36,-5 10.22,-7.49 17.55,-7.49 4.29,0 8.03,0.96 11.18,2.9 3.16,1.93 5.73,4.82 7.66,8.63l0 -9.69 8.73 0zm15.01 7.24l-9.42 0 0 -7.24 9.42 0 0 -20.68 8.96 0 0 20.68 9.42 0 0 7.24 -9.42 0 0 44.11 -8.96 0 0 -44.11zm22.82 -31.97c0,-1.75 0.63,-3.26 1.88,-4.52 1.26,-1.25 2.79,-1.88 4.59,-1.88 1.75,0 3.26,0.63 4.52,1.92 1.25,1.26 1.88,2.79 1.88,4.59 0,1.76 -0.61,3.27 -1.86,4.5 -1.22,1.24 -2.75,1.86 -4.54,1.86 -1.8,0 -3.33,-0.62 -4.59,-1.86 -1.25,-1.23 -1.88,-2.78 -1.88,-4.61zm2.07 76.08l0 -51.35 8.85 0 0 51.35 -8.85 0zm28.6 -25.5c0,5.42 1.82,10.01 5.44,13.76 3.64,3.78 8.04,5.65 13.19,5.65 5.13,0 9.5,-1.87 13.1,-5.65 3.58,-3.75 5.38,-8.34 5.38,-13.76 0,-5.42 -1.8,-10.01 -5.38,-13.77 -3.6,-3.77 -7.97,-5.64 -13.1,-5.64 -5.19,0 -9.59,1.87 -13.21,5.64 -3.62,3.76 -5.42,8.35 -5.42,13.77zm-9.3 -0.04c0,-3.77 0.69,-7.33 2.07,-10.68 1.39,-3.33 3.4,-6.32 6.07,-8.94 2.66,-2.63 5.66,-4.62 9.03,-5.98 3.37,-1.36 6.95,-2.05 10.78,-2.05 3.73,0 7.28,0.69 10.63,2.07 3.35,1.4 6.37,3.41 9.11,6.07 2.66,2.59 4.67,5.53 6.07,8.88 1.38,3.35 2.07,6.9 2.07,10.63 0,3.75 -0.69,7.28 -2.07,10.59 -1.4,3.31 -3.41,6.26 -6.07,8.82 -2.74,2.7 -5.78,4.75 -9.17,6.19 -3.39,1.41 -6.91,2.12 -10.57,2.12 -3.79,0 -7.37,-0.71 -10.76,-2.1 -3.39,-1.4 -6.39,-3.41 -9.05,-6.03 -2.67,-2.7 -4.68,-5.69 -6.07,-8.98 -1.38,-3.3 -2.07,-6.82 -2.07,-10.61zm65.55 25.54l0 -51.35 8.62 0 0 7.93c2.2,-3.29 4.86,-5.74 7.96,-7.35 3.1,-1.61 6.7,-2.42 10.76,-2.42 6.07,0 10.8,1.61 14.19,4.83 3.41,3.22 5.11,7.69 5.11,13.42l0 34.94 -8.96 0 0 -30.23c0,-5.21 -1.09,-9.06 -3.27,-11.58 -2.2,-2.53 -5.57,-3.79 -10.13,-3.79 -2.62,0 -5.02,0.47 -7.16,1.43 -2.15,0.96 -3.93,2.3 -5.36,4.06 -1.07,1.34 -1.86,2.89 -2.32,4.6 -0.48,1.72 -0.71,4.71 -0.71,8.97l0 26.54 -8.73 0zm99.37 -25.16c0,-5.8 -1.59,-10.47 -4.75,-13.99 -3.16,-3.54 -7.28,-5.31 -12.37,-5.31 -5.26,0 -9.38,1.63 -12.33,4.89 -2.97,3.25 -4.44,7.79 -4.44,13.63 0,6.2 1.49,10.99 4.46,14.34 2.97,3.37 7.2,5.05 12.66,5.05 5.22,0 9.34,-1.63 12.31,-4.9 2.96,-3.27 4.46,-7.85 4.46,-13.71zm8.5 -26.19l0 51.35 -8.5 0 0 -9.3c-2.05,3.73 -4.69,6.58 -7.89,8.53 -3.2,1.98 -6.78,2.95 -10.74,2.95 -7.35,0 -13.31,-2.52 -17.81,-7.6 -4.5,-5.07 -6.76,-11.77 -6.76,-20.12 0,-8.44 2.19,-15.16 6.57,-20.16 4.37,-5 10.23,-7.49 17.56,-7.49 4.29,0 8.02,0.96 11.18,2.9 3.16,1.93 5.72,4.82 7.66,8.63l0 -9.69 8.73 0zm14.09 51.35l0 -86.96 8.96 0 0 86.96 -8.96 0zm103.38 -42.39l33.89 0 0 2.74c0,12.94 -3.66,23.15 -10.99,30.61 -7.33,7.49 -17.34,11.22 -30.02,11.22 -3.87,0 -7.54,-0.4 -11.03,-1.22 -3.5,-0.83 -6.74,-2.03 -9.68,-3.6 -6.74,-3.7 -11.93,-8.81 -15.61,-15.34 -3.65,-6.53 -5.49,-13.94 -5.49,-22.24 0,-6.84 1.09,-13.02 3.27,-18.54 2.2,-5.51 5.5,-10.37 9.92,-14.55 3.69,-3.52 8,-6.18 12.9,-7.96 4.9,-1.8 10.32,-2.7 16.28,-2.7 7.88,0 14.72,1.43 20.52,4.29 5.8,2.85 10.61,7.16 14.42,12.92l-8.2 6.57c-2.95,-4.98 -6.62,-8.71 -11.04,-11.2 -4.41,-2.49 -9.54,-3.74 -15.36,-3.74 -9.53,0 -17.29,3.22 -23.22,9.65 -5.96,6.44 -8.92,14.86 -8.92,25.26 0,9.8 3.02,17.84 9.05,24.14 6.03,6.28 13.73,9.42 23.07,9.42 8.23,0 15.09,-2.49 20.56,-7.49 5.48,-5 8.52,-11.5 9.12,-19.51l-23.44 0 0 -8.73zm82.81 17.23c0,-5.8 -1.59,-10.47 -4.75,-13.99 -3.16,-3.54 -7.28,-5.31 -12.37,-5.31 -5.26,0 -9.38,1.63 -12.33,4.89 -2.97,3.25 -4.44,7.79 -4.44,13.63 0,6.2 1.49,10.99 4.46,14.34 2.97,3.37 7.2,5.05 12.65,5.05 5.23,0 9.35,-1.63 12.32,-4.9 2.96,-3.27 4.46,-7.85 4.46,-13.71zm8.5 -26.19l0 51.35 -8.5 0 0 -9.3c-2.05,3.73 -4.69,6.58 -7.89,8.53 -3.2,1.98 -6.78,2.95 -10.74,2.95 -7.35,0 -13.31,-2.52 -17.81,-7.6 -4.5,-5.07 -6.76,-11.77 -6.76,-20.12 0,-8.44 2.19,-15.16 6.57,-20.16 4.37,-5 10.23,-7.49 17.56,-7.49 4.29,0 8.02,0.96 11.18,2.9 3.16,1.93 5.72,4.82 7.66,8.63l0 -9.69 8.73 0zm85.08 51.35l0 -30.23c0,-5.21 -1.05,-9.06 -3.14,-11.58 -2.09,-2.53 -5.3,-3.79 -9.63,-3.79 -2.36,0 -4.54,0.47 -6.53,1.43 -1.99,0.96 -3.7,2.3 -5.07,4.06 -1,1.34 -1.73,2.91 -2.19,4.71 -0.44,1.8 -0.67,4.75 -0.67,8.86l0 26.54 -8.5 0 0 -30.23c0,-5.21 -1.05,-9.06 -3.14,-11.58 -2.08,-2.53 -5.3,-3.79 -9.63,-3.79 -2.35,0 -4.55,0.47 -6.58,1.43 -2.03,0.96 -3.74,2.3 -5.13,4.06 -0.96,1.32 -1.67,2.83 -2.09,4.54 -0.44,1.72 -0.65,4.75 -0.65,9.03l0 26.54 -8.5 0 0 -51.35 8.61 0 0 7.93c2.13,-3.29 4.68,-5.74 7.62,-7.35 2.95,-1.61 6.36,-2.42 10.21,-2.42 4.15,0 7.69,0.88 10.6,2.67 2.91,1.78 5.12,4.38 6.63,7.77 2.2,-3.51 4.8,-6.13 7.81,-7.85 3.02,-1.72 6.51,-2.59 10.47,-2.59 5.73,0 10.19,1.61 13.4,4.83 3.22,3.22 4.83,7.69 4.83,13.42l0 34.94 -8.73 0zm58.47 -31.47c-0.31,-4.52 -1.8,-8.01 -4.52,-10.46 -2.7,-2.45 -6.41,-3.67 -11.12,-3.67 -4.27,0 -7.83,1.28 -10.67,3.84 -2.85,2.55 -4.5,5.98 -4.94,10.29l31.25 0zm9.42 7.12l-40.67 0 0 0.78c0,5.5 1.57,9.94 4.71,13.33 3.14,3.39 7.24,5.07 12.29,5.07 3.43,0 6.55,-0.92 9.31,-2.78 2.77,-1.83 5.23,-4.63 7.35,-8.36l6.66 4.48c-2.56,4.63 -5.86,8.14 -9.86,10.49 -4,2.36 -8.63,3.52 -13.92,3.52 -7.81,0 -14.13,-2.58 -18.95,-7.73 -4.82,-5.17 -7.24,-11.95 -7.24,-20.32 0,-8.04 2.4,-14.62 7.18,-19.75 4.79,-5.12 10.93,-7.68 18.46,-7.68 7.58,0 13.59,2.43 18.03,7.29 4.43,4.87 6.65,11.51 6.65,19.91l0 1.75z"/>
 </g>
</svg>
