<?xml version="1.0" encoding="UTF-8"?>
<!DOCTYPE svg PUBLIC "-//W3C//DTD SVG 1.1//EN" "http://www.w3.org/Graphics/SVG/1.1/DTD/svg11.dtd">
<!-- Creator: CorelDRAW 2018 (64-Bit Evaluation Version) -->
<svg xmlns="http://www.w3.org/2000/svg" xml:space="preserve" width="1439px" height="419px" version="1.1" style="shape-rendering:geometricPrecision; text-rendering:geometricPrecision; image-rendering:optimizeQuality; fill-rule:evenodd; clip-rule:evenodd"
viewBox="0 0 1265.63 368.4"
 xmlns:xlink="http://www.w3.org/1999/xlink">
 <defs>
  <style type="text/css">
   <![CDATA[
    .fil10 {fill:#11B4C4}
    .fil5 {fill:#126767}
    .fil15 {fill:#2B2A29}
    .fil13 {fill:#3E623B}
    .fil12 {fill:#552A69}
    .fil2 {fill:#772E84}
    .fil0 {fill:#824290}
    .fil8 {fill:#8D9093}
    .fil7 {fill:#8FAC4D}
    .fil14 {fill:#9D2239}
    .fil4 {fill:#CD304C}
    .fil11 {fill:#D04627}
    .fil6 {fill:#E73764}
    .fil9 {fill:#EC6790}
    .fil1 {fill:#F29320}
    .fil3 {fill:#FAB931}
    .fil16 {fill:#045175;fill-rule:nonzero}
   ]]>
  </style>
 </defs>
 <g id="Layer_x0020_1">
  <metadata id="CorelCorpID_0Corel-Layer"/>
  <g id="_1803681476576">
   <g>
    <path class="fil0" d="M115.96 194.5c6.26,19.1 -0.93,32.5 -22.02,31.61l8.81 0.94 2.77 14.41 68.57 14.47c4,1.92 7.63,12.97 9.83,18.03l2.05 -0.09c4.47,-3.37 4.62,-4.77 7.66,-8.28 2.93,-3.38 4.74,-4.89 7.36,-8.25 4.6,-5.91 10.1,-11.67 15.55,-17.23 -1.7,-3.29 -2.07,-6.02 0.01,-9.21l6.27 -0.17c-0.31,-0.18 -0.82,-0.69 -0.98,-0.41l-11.39 -16.42c-3.91,-6.65 -3.18,-8.67 -6.77,-14.95l-13.08 -30.98c-13.98,4.04 -18.41,-0.62 -24.66,-7.46 -1.35,1.64 -0.52,0.86 -2.57,2.58l-47.41 31.41z"/>
    <path class="fil1" d="M221.67 68.55c-5.7,0.88 -11.14,3.34 -16.27,5.27 -7.18,2.7 -12.17,3.21 -13.45,7.25 0.02,5.7 -0.26,6.32 -3.37,9.83 1.02,3.6 23.23,35.56 28.56,43.69 0.73,1.1 0.97,1.75 2.07,2.82 2.22,2.15 0.03,1 2.99,1.84 7.06,-8.3 14.12,-19.11 21.84,-26.51l11.56 11.05c7,7.33 14.18,17.4 23.13,23.86 4.65,3.36 11.01,5.75 13.96,10.53l5.59 14.03c4.22,-2.45 3.27,-7.73 4.33,-17.91l4.36 -59.85 -5.07 -2.51 -0.26 -5.6c-7.19,-0.93 -23.26,-7.93 -31.14,-10.78 -6.28,-2.29 -10.97,-3.54 -16.36,-5.54 -5.19,-1.93 -10.43,-3.6 -15.51,-5.64 -2.72,4.07 -8.89,10.18 -16.96,4.17z"/>
    <path class="fil2" d="M222.2 139.25c-5.29,2.01 -6.64,-0.15 -11.72,0.1 -4.2,0.21 -6.93,2.45 -11.96,3.53 5.81,14.07 -0.94,18.51 -7.92,25.09l13.08 30.98c3.59,6.28 2.86,8.3 6.77,14.95l11.39 16.42c0.16,-0.28 0.67,0.23 0.98,0.41l0.73 0.48c4.33,-1.21 13.67,-13.65 16.95,-17.56l42.89 -46.09c4.01,-3.93 4.06,-6.97 9.3,-9.38 -2.95,-4.78 -9.31,-7.17 -13.96,-10.53 -8.95,-6.46 -16.13,-16.53 -23.13,-23.86l-11.56 -11.05c-7.72,7.4 -14.78,18.21 -21.84,26.51z"/>
    <path class="fil3" d="M234.92 14.42l-4.64 34.98c7.13,1.68 9.79,6.13 8.35,14.98 5.08,2.04 10.32,3.71 15.51,5.64 5.39,2 10.08,3.25 16.36,5.54 7.88,2.85 23.95,9.85 31.14,10.78 2.08,-6.03 6.99,-5.78 11.2,-1.42 9.73,-2.52 22.21,-13.89 32.44,-15.99l-41.47 -40.28c-10.27,-9.79 -8.92,-11.54 -28.43,-12.88 -12.88,-0.89 -25.6,-2.75 -38.56,-3.69 -1.82,1.64 -1.02,-0.58 -1.9,2.34z"/>
    <path class="fil4" d="M82.66 99.44l-0.08 6.37c2.61,5.21 5.31,31.46 6.65,39.99 1.12,7.19 2.15,13.32 3.21,19.8 0.95,5.78 3.19,13.7 2.17,19.31 6.64,-0.39 11.13,1.44 15.96,3.48 4.35,-2.42 13.22,-18.26 16.56,-23.05l33.01 -48.86c5.27,-8.66 12.01,-16.55 16.48,-25.09 -2.02,-3.11 -2.42,-1.67 -3.83,-7.07 -7.71,2.77 -15.28,3.52 -23.59,4.75 -7.41,1.09 -12.81,2.1 -20.52,3.48 -7.73,1.38 -40.43,7.53 -46.02,6.89z"/>
    <path class="fil5" d="M303.42 172.69l0.73 6.05 -3.19 1.2 -0.36 21.68c1.89,1.8 -0.2,0.72 3.24,2.3 9.21,3.84 8.75,10.76 4.42,18.39 4.54,4.3 21.21,27.68 26.49,30.56l0 -36.31 14.45 0.77 20.43 0.95c2.05,-10.1 9.51,-20.4 10.71,-30.11l-54.86 -27.41 26.98 -56.74c-4.92,4.89 -8.69,11.4 -12.89,17.26 -4.3,6 -7.61,10.89 -11.9,16.99 -7.73,11 -16.32,23.43 -24.25,34.42z"/>
    <path class="fil6" d="M82.94 190.82c4.97,-2.83 4.02,-3.57 11.67,-5.91 1.02,-5.61 -1.22,-13.53 -2.17,-19.31 -1.06,-6.48 -2.09,-12.61 -3.21,-19.8 -1.34,-8.53 -4.04,-34.78 -6.65,-39.99 -3.1,-5.8 3.47,-5.19 -4.71,-6.31 -3.23,-0.45 -6.87,0.3 -11.81,-0.48 -4.03,-0.63 -16.68,-1.67 -20.86,-1.78 -10.21,-0.29 -36.58,-4.11 -43.6,-1.99 1.76,5.27 20.14,23.42 24.73,30.12l56.61 65.45z"/>
    <path class="fil6" d="M93.48 22.38l2.88 0.15c-2.66,13.03 -4.46,25.21 -6.87,38.73 -2.36,13.18 -5.01,24.95 -6.83,38.18 5.59,0.64 38.29,-5.51 46.02,-6.89 7.71,-1.38 13.11,-2.39 20.52,-3.48 8.31,-1.23 15.88,-1.98 23.59,-4.75 0.1,-3.75 1.23,-6.16 1.92,-8.46 -0.66,-0.85 -2.37,-3.05 -3.24,-3.99 -2.55,-2.75 -2.2,-1.83 -4.71,-3.86 -3.29,-2.65 -5.44,-4.09 -8.57,-7.03l-22.49 -18.48c-6.82,-5.15 -24.65,-23.01 -31.34,-23.24 -3.78,1.6 -5.12,4.24 -10.88,3.12z"/>
    <path class="fil7" d="M308.26 222.31c-5.76,2.58 -10.56,4.43 -15.84,-1.41 -4.1,1.73 -27.87,22.32 -32.67,26.54 -10.51,9.25 -20.26,16.13 -30.89,26.21l45.87 21.79c8.3,-3.42 22.95,-14.89 30.84,-20.26 5.85,-3.99 26.62,-17.05 29.65,-20.73l0 -38.06 13.98 0.94 -14.45 -0.77 0 36.31c-5.28,-2.88 -21.95,-26.26 -26.49,-30.56z"/>
    <path class="fil8" d="M274.73 295.44l-45.87 -21.79 -40.05 1.43c-0.33,-0.07 -0.74,-0.26 -1,-0.33l-1.84 -0.88 -2.05 0.09c2.46,3.76 38.47,25.41 45.24,29.26 6.54,3.71 5.87,3.19 7.22,12 0.86,5.63 6.32,43.68 9.04,46.56 3.04,2.47 14.32,6.88 18.84,6.61 4.03,-0.24 14.96,-5.03 19.66,-6.4l-9.19 -66.55z"/>
    <path class="fil4" d="M77.73 209.35c-1.33,-9.52 1.41,-12.7 5.21,-18.53l-56.61 -65.45c-4.59,-6.7 -22.97,-24.85 -24.73,-30.12l-1.6 0c1.42,13.48 1.71,61.85 5.88,66.28l38.2 34.05c19.66,19.27 15.58,9.22 30.18,11.99 2.92,0.55 2.05,-0.26 3.47,1.78z"/>
    <path class="fil9" d="M0 95.25l1.6 0c7.02,-2.12 33.39,1.7 43.6,1.99 4.18,0.11 16.83,1.15 20.86,1.78 4.94,0.78 8.58,0.03 11.81,0.48 8.18,1.12 1.61,0.51 4.71,6.31l0.08 -6.37c1.82,-13.23 4.47,-25 6.83,-38.18 2.41,-13.52 4.21,-25.7 6.87,-38.73l-2.88 -0.15 -6.2 -2.29 -81.95 69.25c-3.86,2.84 -3.95,1.25 -5.33,5.91z"/>
    <path class="fil9" d="M106.88 12.12l-0.58 3.06c0.68,0.67 0.54,0.7 2.15,1.64l10.51 4.05c4.77,1.79 9.09,3.2 14.11,5.15 9.12,3.54 18.49,6.61 28.2,10.31 8.4,3.19 51.23,19.24 56.74,19.8 2.67,-4.68 5.19,-7.35 12.27,-6.73l4.64 -34.98c-1.22,-10.92 -21.17,-6.58 -28.26,-6.26 -10.91,0.5 -22.01,0.77 -32.89,1.25 -21.94,0.99 -45.13,2.67 -66.89,2.71z"/>
    <path class="fil10" d="M352.46 104.02l-26.98 56.74 54.86 27.41c0.1,-17.03 -2.8,-35.54 -3.73,-52.84 -0.64,-11.82 -0.02,-15.64 -6.16,-22.8 -4.59,-5.36 -9.32,-11.3 -13.68,-15.69l-4.31 7.18z"/>
    <path class="fil11" d="M312.84 84.92c2.87,5.98 -0.12,8.89 -5.87,9.53l-4.36 59.85c-1.06,10.18 -0.11,15.46 -4.33,17.91l0.1 0.43 5.04 0.05c7.93,-10.99 16.52,-23.42 24.25,-34.42 4.29,-6.1 7.6,-10.99 11.9,-16.99 4.2,-5.86 7.97,-12.37 12.89,-17.26l4.31 -7.18 -11.49 -27.91c-10.23,2.1 -22.71,13.47 -32.44,15.99z"/>
    <path class="fil12" d="M223.55 231.21l1.17 3.03 65.52 -17.24c-1.1,-9.24 4.05,-14.39 13.6,-13.08 -3.44,-1.58 -1.35,-0.5 -3.24,-2.3l0.36 -21.68 -3.68 -1.48c-0.2,-4.86 -0.57,-2.51 1.1,-5.82l-0.1 -0.43 -5.59 -14.03c-5.24,2.41 -5.29,5.45 -9.3,9.38l-42.89 46.09c-3.28,3.91 -12.62,16.35 -16.95,17.56z"/>
    <path class="fil13" d="M224.72 234.24c-0.31,6.41 -1.71,6.07 -8.18,5.87 -5.45,5.56 -10.95,11.32 -15.55,17.23 -2.62,3.36 -4.43,4.87 -7.36,8.25 -3.04,3.51 -3.19,4.91 -7.66,8.28l1.84 0.88c0.26,0.07 0.67,0.26 1,0.33l40.05 -1.43c10.63,-10.08 20.38,-16.96 30.89,-26.21 4.8,-4.22 28.57,-24.81 32.67,-26.54l-2.18 -3.9 -65.52 17.24z"/>
    <path class="fil4" d="M104.36 19.26c6.69,0.23 24.52,18.09 31.34,23.24l22.49 18.48c3.13,2.94 5.28,4.38 8.57,7.03 2.51,2.03 2.16,1.11 4.71,3.86 0.87,0.94 2.58,3.14 3.24,3.99 9.9,-3.89 12.26,-3.79 17.24,5.21 1.28,-4.04 6.27,-4.55 13.45,-7.25 5.13,-1.93 10.57,-4.39 16.27,-5.27 -2.82,-3.1 -4.91,-5.98 -3.66,-12.42 -5.51,-0.56 -48.34,-16.61 -56.74,-19.8 -9.71,-3.7 -19.08,-6.77 -28.2,-10.31 -5.02,-1.95 -9.34,-3.36 -14.11,-5.15l-10.51 -4.05c-1.61,-0.94 -1.47,-0.97 -2.15,-1.64l-1.94 4.08z"/>
    <path class="fil14" d="M110.57 188.39c2.14,3 3.44,3.28 5.39,6.11l47.41 -31.41c2.05,-1.72 1.22,-0.94 2.57,-2.58 -5.54,-16.01 2.12,-28.97 19.28,-27.36 -4.86,-2.81 -3.61,2.25 -4.06,-7.26 -0.15,-3.22 0.15,-7.64 0.19,-11 0.1,-7.32 0.24,-14.63 0.35,-21.94l-5.08 -1.56c-4.47,8.54 -11.21,16.43 -16.48,25.09l-33.01 48.86c-3.34,4.79 -12.21,20.63 -16.56,23.05z"/>
    <path class="fil15" d="M82.94 190.82c-3.8,5.83 -6.54,9.01 -5.21,18.53 1.53,8.84 7.53,14.79 16.21,16.76 21.09,0.89 28.28,-12.51 22.02,-31.61 -1.95,-2.83 -3.25,-3.11 -5.39,-6.11 -4.83,-2.04 -9.32,-3.87 -15.96,-3.48 -7.65,2.34 -6.7,3.08 -11.67,5.91z"/>
    <path class="fil15" d="M165.94 160.51c6.25,6.84 10.68,11.5 24.66,7.46 6.98,-6.58 13.73,-11.02 7.92,-25.09 -2.26,-5.52 -6.34,-8.53 -13.3,-9.73 -17.16,-1.61 -24.82,11.35 -19.28,27.36z"/>
    <path class="fil4" d="M181.7 92.95c-0.11,7.31 -0.25,14.62 -0.35,21.94 -0.04,3.36 -0.34,7.78 -0.19,11 0.45,9.51 -0.8,4.45 4.06,7.26 6.96,1.2 11.04,4.21 13.3,9.73 5.03,-1.08 7.76,-3.32 11.96,-3.53 5.08,-0.25 6.43,1.91 11.72,-0.1 -2.96,-0.84 -0.77,0.31 -2.99,-1.84 -1.1,-1.07 -1.34,-1.72 -2.07,-2.82 -5.33,-8.13 -27.54,-40.09 -28.56,-43.69l-6.88 2.05z"/>
    <path class="fil15" d="M87.28 20.09l6.2 2.29c5.76,1.12 7.1,-1.52 10.88,-3.12l1.94 -4.08 0.58 -3.06c-1.44,-21.83 -32.76,-11.09 -19.6,7.97z"/>
    <path class="fil15" d="M218.01 56.13c-1.25,6.44 0.84,9.32 3.66,12.42 8.07,6.01 14.24,-0.1 16.96,-4.17 1.44,-8.85 -1.22,-13.3 -8.35,-14.98 -7.08,-0.62 -9.6,2.05 -12.27,6.73z"/>
    <path class="fil15" d="M290.24 217l2.18 3.9c5.28,5.84 10.08,3.99 15.84,1.41 4.33,-7.63 4.79,-14.55 -4.42,-18.39 -9.55,-1.31 -14.7,3.84 -13.6,13.08z"/>
    <path class="fil15" d="M174.71 75.86c-0.69,2.3 -1.82,4.71 -1.92,8.46 1.41,5.4 1.81,3.96 3.83,7.07l5.08 1.56 6.88 -2.05c3.11,-3.51 3.39,-4.13 3.37,-9.83 -4.98,-9 -7.34,-9.1 -17.24,-5.21z"/>
    <path class="fil15" d="M301.64 86.34l0.26 5.6 5.07 2.51c5.75,-0.64 8.74,-3.55 5.87,-9.53 -4.21,-4.36 -9.12,-4.61 -11.2,1.42z"/>
    <path class="fil15" d="M216.54 240.11c6.47,0.2 7.87,0.54 8.18,-5.87l-1.17 -3.03 -0.73 -0.48 -6.27 0.17c-2.08,3.19 -1.71,5.92 -0.01,9.21z"/>
    <path class="fil15" d="M300.96 179.94l3.19 -1.2 -0.73 -6.05 -5.04 -0.05c-1.67,3.31 -1.3,0.96 -1.1,5.82l3.68 1.48z"/>
   </g>
   <g>
    <path class="fil16" d="M602.14 199.27c0,6.52 1.13,13.28 3.38,20.29 7.02,-12.02 12.78,-24.54 17.29,-37.57 4.5,-13.02 7.7,-25.8 9.58,-38.32 1.88,-12.52 2.38,-24.42 1.5,-35.69 -0.88,-11.27 -3.01,-21.23 -6.39,-29.87 -3.38,-8.64 -8.14,-15.53 -14.27,-20.66 -6.14,-5.14 -13.47,-7.95 -21.98,-8.46 -10.27,-0.5 -20.29,2.26 -30.06,8.27 -9.77,6.01 -18.85,13.78 -27.24,23.29 -8.39,9.52 -16.03,20.17 -22.91,31.94 -6.89,11.77 -12.72,23.17 -17.47,34.19 -4.76,11.02 -8.27,21.04 -10.52,30.05 -2.26,9.02 -2.88,15.41 -1.88,19.16 0.75,2.76 -0.5,4.95 -3.76,6.58 -3.25,1.63 -7.51,2.5 -12.77,2.63 -5.26,0.12 -11.02,-0.5 -17.28,-1.88 -6.27,-1.38 -12.15,-3.57 -17.66,-6.58 -5.51,-3 -10.08,-6.88 -13.72,-11.64 -3.63,-4.76 -5.44,-10.4 -5.44,-16.91 0,-11.02 2.25,-22.66 6.76,-34.94 4.51,-12.27 10.83,-24.29 18.97,-36.06 8.14,-11.78 17.91,-22.86 29.31,-33.26 11.39,-10.39 23.85,-19.47 37.38,-27.23 13.52,-7.77 27.99,-13.65 43.39,-17.66 15.41,-4.01 31.25,-5.38 47.53,-4.13 21.29,1.5 38.76,7.07 52.41,16.72 13.65,9.64 23.92,21.66 30.8,36.06 6.89,14.4 10.77,30.56 11.65,48.47 0.88,17.91 -0.81,36 -5.07,54.29 -4.26,18.28 -10.83,36 -19.72,53.16 -8.9,17.15 -19.48,32.12 -31.75,44.89 5.76,7.52 11.33,13.47 16.72,17.85 5.38,4.38 9.58,6.2 12.58,5.45 3.26,-1.01 4.45,-0.07 3.57,2.81 -0.87,2.88 -3.32,6.2 -7.32,9.96 -4.01,3.76 -9.21,7.08 -15.6,9.96 -6.38,2.88 -13.46,3.94 -21.22,3.19 -5.26,-0.5 -10.27,-2.63 -15.03,-6.39 -4.76,-3.75 -9.27,-8.51 -13.53,-14.27 -10.26,4.25 -20.41,6.26 -30.43,6.01 -10.02,-0.25 -19.28,-2.32 -27.8,-6.2 -8.51,-3.88 -15.9,-9.46 -22.16,-16.72 -6.27,-7.26 -10.77,-15.78 -13.53,-25.55 -3.26,-10.77 -4.82,-23.54 -4.7,-38.32 0.13,-14.78 2.07,-29.62 5.83,-44.52 3.75,-14.9 9.39,-28.93 16.9,-42.08 7.52,-13.15 17.04,-23.35 28.56,-30.62 5.76,-3.75 11.58,-5.44 17.47,-5.07 5.88,0.38 11.52,1.94 16.9,4.7 5.39,2.75 10.27,6.32 14.66,10.7 4.38,4.39 7.76,8.71 10.14,12.97 2.38,4.25 3.69,8.07 3.94,11.46 0.25,3.38 -1.12,5.44 -4.13,6.19 -4.51,1.26 -9.89,4.64 -16.15,10.15 -6.27,5.51 -12.4,12.46 -18.41,20.85 -6.01,8.39 -11.4,17.78 -16.16,28.18 -4.76,10.39 -7.64,20.97 -8.64,31.74 -1.25,14.03 1.19,23.11 7.33,27.24 6.13,4.13 13.46,3.7 21.98,-1.31 -3.26,-11.78 -4.64,-21.67 -4.14,-29.68 0.25,-6.77 2.07,-12.65 5.45,-17.66 3.38,-5.01 7.08,-8.83 11.08,-11.46 4.01,-2.63 7.64,-3.88 10.9,-3.76 3.25,0.13 4.88,1.82 4.88,5.07zm222.79 -42.82c0.5,3.75 0.31,8.76 -0.56,15.02 -0.88,6.26 -2.13,12.96 -3.76,20.1 -1.63,7.14 -3.26,14.4 -4.88,21.79 -1.63,7.39 -3.01,13.97 -4.14,19.73 -1.12,5.76 -1.69,10.33 -1.69,13.71 0,3.38 1.01,4.82 3.01,4.32 0.75,-0.25 1.88,-1.63 3.38,-4.13 1.5,-2.51 3.13,-5.76 4.88,-9.77 1.76,-4.01 3.64,-8.39 5.64,-13.15 2,-4.76 3.88,-9.45 5.64,-14.09 1.75,-4.63 3.25,-8.89 4.5,-12.77 1.26,-3.88 2.26,-6.95 3.01,-9.21 0.25,-1.25 1.44,-2.31 3.57,-3.19 2.13,-0.88 4.32,-1.31 6.57,-1.31 2.26,0 4.2,0.5 5.83,1.5 1.63,1 2.06,2.75 1.31,5.26 -2.5,8.51 -5.13,17.03 -7.89,25.54 -2.75,8.52 -5.76,16.54 -9.01,24.05 -3.26,7.51 -6.58,14.21 -9.96,20.1 -3.38,5.89 -6.83,10.46 -10.33,13.71 -2.76,2.51 -6.08,4.45 -9.96,5.83 -3.88,1.37 -7.89,2.13 -12.02,2.25 -4.13,0.13 -8.2,-0.56 -12.21,-2.07 -4.01,-1.5 -7.51,-3.75 -10.52,-6.76 -3.01,-3 -5.57,-7.2 -7.7,-12.59 -2.13,-5.38 -3.07,-10.2 -2.82,-14.46 -0.75,2.51 -2,5.2 -3.76,8.08 -1.75,2.88 -3.69,5.7 -5.82,8.45 -2.13,2.76 -4.26,5.26 -6.39,7.52 -2.13,2.25 -3.82,4 -5.07,5.26 -2.75,2.75 -6.45,4.63 -11.08,5.63 -4.64,1 -9.39,0.94 -14.28,-0.19 -4.88,-1.12 -9.39,-3.63 -13.52,-7.51 -4.14,-3.88 -7.2,-9.33 -9.21,-16.34 -2.25,-7.77 -3.25,-16.53 -3,-26.3 0.25,-9.77 1.12,-19.6 2.63,-29.5 1.5,-9.89 3.44,-19.47 5.82,-28.74 2.38,-9.26 4.82,-17.28 7.33,-24.04 1.5,-3.76 4.88,-6.39 10.14,-7.89 5.26,-1.5 10.77,-1.94 16.53,-1.32 5.76,0.63 10.96,2.26 15.59,4.89 4.63,2.63 7.08,6.07 7.33,10.33 0.25,2.51 -0.32,6.51 -1.69,12.02 -1.38,5.51 -3.01,11.65 -4.89,18.41 -1.88,6.76 -3.82,13.84 -5.82,21.23 -2,7.39 -3.63,14.09 -4.88,20.1 -1.26,6.01 -2.01,11.02 -2.26,15.03 -0.25,4 0.5,6.13 2.26,6.38 1.75,0.25 3.81,-1.37 6.2,-4.88 2.37,-3.51 4.88,-8.14 7.51,-13.9 2.63,-5.76 5.32,-12.27 8.08,-19.54 2.75,-7.26 5.32,-14.59 7.7,-21.98 2.38,-7.38 4.51,-14.33 6.38,-20.85 1.88,-6.51 3.45,-12.02 4.7,-16.53 1,-4.25 3.76,-7.32 8.27,-9.2 4.5,-1.88 9.2,-2.57 14.08,-2.07 4.89,0.5 9.46,2.26 13.72,5.26 4.26,3.01 6.76,7.26 7.51,12.78zm55.6 66.87c0,3.26 0.38,6.7 1.13,10.33 0.75,3.63 1.94,7.01 3.57,10.14 1.63,3.14 3.57,5.7 5.82,7.71 2.26,2 4.76,2.88 7.52,2.63 3.25,-0.25 7.14,-2.26 11.64,-6.01 4.51,-3.76 9.02,-8.71 13.53,-14.84 4.51,-6.14 8.83,-13.22 12.96,-21.23 4.13,-8.02 7.7,-16.53 10.71,-25.55 0.75,-2 2.13,-3.19 4.13,-3.57 2.01,-0.37 4.13,-0.31 6.39,0.19 2.25,0.5 4.13,1.31 5.63,2.44 1.51,1.13 2.13,2.19 1.88,3.19 -4.26,10.52 -8.2,19.98 -11.83,28.37 -3.63,8.39 -7.45,15.97 -11.46,22.73 -4.01,6.76 -8.33,12.84 -12.96,18.22 -4.64,5.39 -10.08,10.33 -16.35,14.84 -5.76,4.26 -12.14,7.33 -19.16,9.21 -7.01,1.87 -13.9,2.38 -20.66,1.5 -6.76,-0.88 -13.15,-3.32 -19.16,-7.33 -6.01,-4.01 -10.9,-9.89 -14.65,-17.65 -3.51,-6.77 -5.64,-14.41 -6.39,-22.92 -0.75,-8.52 -0.5,-17.16 0.75,-25.93 1.25,-8.76 3.51,-17.28 6.77,-25.54 3.25,-8.27 7.13,-15.78 11.64,-22.55 7.01,-10.26 15.59,-17.4 25.74,-21.41 10.14,-4.01 19.72,-5.07 28.74,-3.19 9.01,1.87 16.4,6.51 22.16,13.9 5.76,7.39 8.02,17.22 6.77,29.49 -0.75,5.76 -2.63,12.15 -5.64,19.16 -3,7.01 -6.95,13.02 -11.83,18.03 -4.89,5.01 -10.52,8.39 -16.91,10.15 -6.39,1.75 -13.21,0.25 -20.48,-4.51zm30.06 -59.36c-2.5,0.5 -5.32,2 -8.45,4.51 -3.13,2.5 -6.08,5.76 -8.83,9.77 -2.76,4 -5.2,8.51 -7.33,13.52 -2.13,5.01 -3.44,10.02 -3.94,15.03 4.26,1 8.58,-0.75 12.96,-5.26 4.38,-4.51 8.08,-9.58 11.08,-15.22 3.01,-5.63 5.07,-10.83 6.2,-15.59 1.13,-4.76 0.56,-7.01 -1.69,-6.76zm206.63 -100.69c-2.25,1.5 -5.26,6.95 -9.01,16.34 -3.76,9.4 -7.83,20.86 -12.21,34.38 -4.39,13.53 -8.64,27.93 -12.78,43.21 -4.13,15.27 -7.57,29.43 -10.33,42.45 -2.75,13.02 -4.38,23.86 -4.88,32.5 -0.5,8.64 0.62,12.96 3.38,12.96 2.25,0 5.13,-2.32 8.64,-6.95 3.51,-4.63 7.08,-10.14 10.71,-16.53 3.63,-6.39 6.95,-12.9 9.95,-19.54 3.01,-6.64 5.14,-11.83 6.39,-15.59 0.75,-2 2.13,-3.32 4.13,-3.94 2.01,-0.63 4.07,-0.76 6.2,-0.38 2.13,0.38 3.95,1.19 5.45,2.44 1.5,1.25 2,2.76 1.5,4.51 -1.5,5.01 -3.44,10.71 -5.82,17.09 -2.38,6.39 -5.14,12.97 -8.27,19.73 -3.13,6.76 -6.57,13.52 -10.33,20.29 -3.76,6.76 -7.76,12.9 -12.02,18.41 -5.01,6.51 -11.21,11.33 -18.6,14.46 -7.39,3.13 -14.65,4.26 -21.79,3.38 -7.14,-0.87 -13.4,-3.94 -18.78,-9.2 -5.39,-5.26 -8.58,-13.15 -9.58,-23.67 -5.01,10.02 -10.9,17.72 -17.66,23.1 -6.76,5.39 -13.46,8.71 -20.1,9.96 -6.64,1.25 -12.9,0.44 -18.79,-2.44 -5.88,-2.88 -10.58,-7.7 -14.08,-14.47 -3.76,-7.51 -6.14,-16.34 -7.14,-26.48 -1,-10.15 -0.69,-20.54 0.94,-31.19 1.63,-10.64 4.51,-21.04 8.64,-31.18 4.13,-10.14 9.33,-18.85 15.59,-26.11 6.26,-7.26 13.52,-12.65 21.79,-16.16 8.27,-3.5 17.53,-4 27.8,-1.5 3.26,0.75 5.89,1.82 7.89,3.19 2,1.38 3.63,2.57 4.89,3.57 1.25,1.01 2.19,1.7 2.81,2.07 0.63,0.38 1.07,-0.06 1.32,-1.31 1,-4.01 2.38,-10.34 4.13,-18.98 1.75,-8.64 3.76,-17.72 6.01,-27.24 2.26,-9.51 4.82,-18.53 7.7,-27.05 2.88,-8.51 5.95,-14.65 9.21,-18.41 4.76,-5.5 11.02,-8.26 18.78,-8.26 7.77,0 15.03,1.31 21.79,3.94 6.77,2.63 12.03,5.83 15.78,9.59 3.76,3.75 4.01,6.76 0.75,9.01zm-123.6 175.45c3.01,0 6.07,-2.88 9.2,-8.64 3.13,-5.76 6.2,-12.65 9.21,-20.66 3,-8.02 5.76,-16.28 8.26,-24.8 2.51,-8.51 4.76,-15.78 6.77,-21.79 -5.26,-4.76 -10.21,-6.2 -14.84,-4.32 -4.64,1.88 -8.77,5.64 -12.4,11.27 -3.63,5.64 -6.58,12.46 -8.83,20.48 -2.25,8.01 -3.69,15.59 -4.32,22.73 -0.63,7.14 -0.44,13.27 0.56,18.41 1,5.13 3.13,7.57 6.39,7.32zm238.94 -82.27c0.5,3.75 0.32,8.76 -0.56,15.02 -0.88,6.26 -2.13,12.96 -3.76,20.1 -1.63,7.14 -3.25,14.4 -4.88,21.79 -1.63,7.39 -3.01,13.97 -4.13,19.73 -1.13,5.76 -1.7,10.33 -1.7,13.71 0,3.38 1.01,4.82 3.01,4.32 0.75,-0.25 1.88,-1.63 3.38,-4.13 1.5,-2.51 3.13,-5.76 4.89,-9.77 1.75,-4.01 3.63,-8.39 5.63,-13.15 2,-4.76 3.88,-9.45 5.64,-14.09 1.75,-4.63 3.25,-8.89 4.51,-12.77 1.25,-3.88 2.25,-6.95 3,-9.21 0.25,-1.25 1.44,-2.31 3.57,-3.19 2.13,-0.88 4.32,-1.31 6.58,-1.31 2.25,0 4.19,0.5 5.82,1.5 1.63,1 2.06,2.75 1.31,5.26 -2.5,8.51 -5.13,17.03 -7.89,25.54 -2.75,8.52 -5.76,16.54 -9.01,24.05 -3.26,7.51 -6.58,14.21 -9.96,20.1 -3.38,5.89 -6.82,10.46 -10.33,13.71 -2.76,2.51 -6.07,4.45 -9.96,5.83 -3.88,1.37 -7.89,2.13 -12.02,2.25 -4.13,0.13 -8.2,-0.56 -12.21,-2.07 -4.01,-1.5 -7.51,-3.75 -10.52,-6.76 -3,-3 -5.57,-7.2 -7.7,-12.59 -2.13,-5.38 -3.07,-10.2 -2.82,-14.46 -0.75,2.51 -2,5.2 -3.76,8.08 -1.75,2.88 -3.69,5.7 -5.82,8.45 -2.13,2.76 -4.26,5.26 -6.39,7.52 -2.12,2.25 -3.82,4 -5.07,5.26 -2.75,2.75 -6.45,4.63 -11.08,5.63 -4.63,1 -9.39,0.94 -14.28,-0.19 -4.88,-1.12 -9.39,-3.63 -13.52,-7.51 -4.13,-3.88 -7.2,-9.33 -9.21,-16.34 -2.25,-7.77 -3.25,-16.53 -3,-26.3 0.25,-9.77 1.13,-19.6 2.63,-29.5 1.5,-9.89 3.44,-19.47 5.82,-28.74 2.38,-9.26 4.82,-17.28 7.33,-24.04 1.5,-3.76 4.88,-6.39 10.14,-7.89 5.26,-1.5 10.77,-1.94 16.53,-1.32 5.76,0.63 10.96,2.26 15.59,4.89 4.64,2.63 7.08,6.07 7.33,10.33 0.25,2.51 -0.31,6.51 -1.69,12.02 -1.38,5.51 -3.01,11.65 -4.89,18.41 -1.87,6.76 -3.81,13.84 -5.82,21.23 -2,7.39 -3.63,14.09 -4.88,20.1 -1.25,6.01 -2.01,11.02 -2.26,15.03 -0.25,4 0.5,6.13 2.26,6.38 1.75,0.25 3.82,-1.37 6.2,-4.88 2.38,-3.51 4.88,-8.14 7.51,-13.9 2.63,-5.76 5.32,-12.27 8.08,-19.54 2.75,-7.26 5.32,-14.59 7.7,-21.98 2.38,-7.38 4.51,-14.33 6.39,-20.85 1.87,-6.51 3.44,-12.02 4.69,-16.53 1,-4.25 3.76,-7.32 8.27,-9.2 4.51,-1.88 9.2,-2.57 14.09,-2.07 4.88,0.5 9.45,2.26 13.71,5.26 4.26,3.01 6.76,7.26 7.51,12.78z"/>
    <path class="fil16" d="M693.9 352.6l0 -54.26 28.61 0 0 5.92 -22.16 0 0 15.56 22.16 0 0 5.99 -22.16 0 0 20.8 22.16 0 0 5.99 -28.61 0zm62.29 -16.77c0,-3.78 -1.05,-6.83 -3.15,-9.13 -2.1,-2.31 -4.87,-3.47 -8.31,-3.47 -3.43,0 -6.11,1.05 -8.03,3.15 -1.94,2.1 -2.9,5 -2.9,8.7 0,4.18 0.98,7.45 2.92,9.81 1.97,2.36 4.66,3.54 8.09,3.54 3.56,0 6.35,-1.12 8.36,-3.34 2.01,-2.21 3.02,-5.31 3.02,-9.26zm5.61 -40.67l0 57.44 -5.61 0 0 -6.13c-1.34,2.44 -3.06,4.31 -5.19,5.61 -2.12,1.31 -4.5,1.96 -7.12,1.96 -4.87,0 -8.79,-1.67 -11.76,-5.02 -2.97,-3.35 -4.46,-7.78 -4.46,-13.29 0,-5.55 1.45,-9.99 4.37,-13.29 2.91,-3.32 6.79,-4.97 11.64,-4.97 2.81,0 5.26,0.63 7.33,1.91 2.08,1.27 3.75,3.18 5.04,5.7l0 -29.92 5.76 0zm14.7 23.52l0 16.7c0,4.86 0.72,8.27 2.16,10.21 1.46,1.94 3.89,2.91 7.33,2.91 3.42,0 5.85,-0.96 7.28,-2.87 1.42,-1.92 2.13,-5.33 2.13,-10.25l0 -16.7 5.91 0 0 19.81c0,5.11 -1.3,8.98 -3.92,11.61 -2.61,2.63 -6.47,3.94 -11.56,3.94 -5.03,0 -8.86,-1.31 -11.48,-3.96 -2.62,-2.64 -3.92,-6.51 -3.92,-11.59l0 -19.81 6.07 0zm59.47 25.88l0 6.75c-1.53,0.91 -3.25,1.59 -5.18,2.05 -1.9,0.46 -3.98,0.68 -6.21,0.68 -5.23,0 -9.44,-1.65 -12.64,-4.98 -3.2,-3.33 -4.81,-7.69 -4.81,-13.1 0,-5.44 1.66,-9.88 4.97,-13.32 3.31,-3.45 7.55,-5.17 12.71,-5.17 1.87,0 3.71,0.2 5.5,0.59 1.8,0.39 3.48,0.98 5.06,1.75l0 6.23c-1.48,-0.96 -3.01,-1.69 -4.59,-2.2 -1.58,-0.5 -3.19,-0.76 -4.82,-0.76 -3.8,0 -6.86,1.19 -9.15,3.58 -2.3,2.38 -3.46,5.55 -3.46,9.5 0,3.49 1.16,6.4 3.47,8.75 2.31,2.34 5.21,3.52 8.69,3.52 1.75,0 3.48,-0.32 5.16,-0.94 1.68,-0.62 3.44,-1.59 5.3,-2.93zm31.41 -8.58c0,-3.83 -1.05,-6.92 -3.13,-9.24 -2.09,-2.34 -4.81,-3.51 -8.17,-3.51 -3.48,0 -6.2,1.08 -8.15,3.23 -1.96,2.15 -2.93,5.15 -2.93,9 0,4.1 0.98,7.26 2.94,9.48 1.96,2.22 4.76,3.34 8.36,3.34 3.46,0 6.18,-1.08 8.14,-3.24 1.96,-2.16 2.94,-5.19 2.94,-9.06zm5.62 -17.3l0 33.92 -5.62 0 0 -6.15c-1.35,2.47 -3.1,4.35 -5.21,5.64 -2.11,1.31 -4.48,1.95 -7.09,1.95 -4.86,0 -8.79,-1.67 -11.77,-5.02 -2.97,-3.35 -4.46,-7.78 -4.46,-13.29 0,-5.58 1.44,-10.02 4.34,-13.32 2.88,-3.3 6.75,-4.94 11.6,-4.94 2.83,0 5.3,0.63 7.38,1.91 2.09,1.27 3.78,3.18 5.06,5.7l0 -6.4 5.77 0zm9.91 4.78l-6.22 0 0 -4.78 6.22 0 0 -13.66 5.92 0 0 13.66 6.22 0 0 4.78 -6.22 0 0 29.14 -5.92 0 0 -29.14zm15.08 -21.12c0,-1.15 0.41,-2.15 1.24,-2.98 0.83,-0.83 1.84,-1.24 3.03,-1.24 1.15,0 2.15,0.41 2.99,1.26 0.82,0.84 1.24,1.85 1.24,3.04 0,1.16 -0.41,2.16 -1.23,2.97 -0.81,0.82 -1.82,1.23 -3,1.23 -1.19,0 -2.2,-0.41 -3.03,-1.23 -0.83,-0.81 -1.24,-1.84 -1.24,-3.05zm1.36 50.26l0 -33.92 5.85 0 0 33.92 -5.85 0zm18.9 -16.84c0,3.57 1.2,6.61 3.59,9.09 2.4,2.49 5.31,3.73 8.71,3.73 3.39,0 6.28,-1.24 8.66,-3.73 2.36,-2.48 3.55,-5.52 3.55,-9.09 0,-3.58 -1.19,-6.62 -3.55,-9.1 -2.38,-2.49 -5.27,-3.73 -8.66,-3.73 -3.42,0 -6.33,1.24 -8.72,3.73 -2.39,2.48 -3.58,5.52 -3.58,9.1zm-6.15 -0.03c0,-2.49 0.46,-4.84 1.37,-7.06 0.92,-2.2 2.25,-4.17 4.01,-5.9 1.76,-1.74 3.74,-3.05 5.97,-3.95 2.22,-0.9 4.59,-1.35 7.12,-1.35 2.46,0 4.8,0.45 7.02,1.36 2.21,0.93 4.21,2.25 6.02,4.01 1.75,1.71 3.08,3.66 4.01,5.87 0.91,2.21 1.36,4.55 1.36,7.02 0,2.48 -0.45,4.81 -1.36,6.99 -0.93,2.19 -2.26,4.14 -4.01,5.83 -1.81,1.79 -3.82,3.14 -6.06,4.09 -2.24,0.93 -4.57,1.4 -6.98,1.4 -2.51,0 -4.87,-0.47 -7.11,-1.39 -2.24,-0.92 -4.22,-2.25 -5.98,-3.98 -1.76,-1.79 -3.09,-3.76 -4.01,-5.93 -0.91,-2.18 -1.37,-4.51 -1.37,-7.01zm43.31 16.87l0 -33.92 5.69 0 0 5.24c1.45,-2.18 3.21,-3.8 5.26,-4.86 2.05,-1.06 4.43,-1.59 7.11,-1.59 4.01,0 7.13,1.06 9.37,3.18 2.25,2.13 3.38,5.09 3.38,8.87l0 23.08 -5.92 0 0 -19.97c0,-3.44 -0.72,-5.98 -2.17,-7.65 -1.45,-1.67 -3.68,-2.5 -6.69,-2.5 -1.73,0 -3.31,0.31 -4.73,0.94 -1.41,0.64 -2.59,1.52 -3.54,2.68 -0.71,0.89 -1.23,1.91 -1.53,3.04 -0.32,1.14 -0.47,3.11 -0.47,5.93l0 17.53 -5.76 0zm65.63 -16.62c0,-3.83 -1.04,-6.92 -3.13,-9.24 -2.09,-2.34 -4.81,-3.51 -8.17,-3.51 -3.48,0 -6.2,1.08 -8.15,3.23 -1.96,2.15 -2.93,5.15 -2.93,9 0,4.1 0.99,7.26 2.95,9.48 1.96,2.22 4.75,3.34 8.36,3.34 3.45,0 6.17,-1.08 8.13,-3.24 1.96,-2.16 2.94,-5.19 2.94,-9.06zm5.62 -17.3l0 33.92 -5.62 0 0 -6.15c-1.35,2.47 -3.09,4.35 -5.21,5.64 -2.11,1.31 -4.47,1.95 -7.09,1.95 -4.86,0 -8.79,-1.67 -11.76,-5.02 -2.97,-3.35 -4.47,-7.78 -4.47,-13.29 0,-5.58 1.44,-10.02 4.34,-13.32 2.88,-3.3 6.75,-4.94 11.6,-4.94 2.83,0 5.3,0.63 7.38,1.91 2.09,1.27 3.79,3.18 5.06,5.7l0 -6.4 5.77 0zm9.31 33.92l0 -57.44 5.92 0 0 57.44 -5.92 0zm68.29 -28l22.39 0 0 1.81c0,8.55 -2.42,15.29 -7.26,20.22 -4.84,4.95 -11.46,7.41 -19.83,7.41 -2.56,0 -4.98,-0.26 -7.29,-0.81 -2.31,-0.54 -4.45,-1.34 -6.4,-2.37 -4.45,-2.44 -7.87,-5.82 -10.3,-10.13 -2.42,-4.32 -3.63,-9.21 -3.63,-14.7 0,-4.52 0.72,-8.6 2.16,-12.24 1.45,-3.65 3.63,-6.86 6.55,-9.62 2.44,-2.32 5.29,-4.08 8.53,-5.26 3.23,-1.19 6.81,-1.78 10.75,-1.78 5.21,0 9.72,0.95 13.55,2.83 3.84,1.89 7.01,4.73 9.53,8.54l-5.42 4.34c-1.94,-3.29 -4.37,-5.76 -7.29,-7.4 -2.91,-1.64 -6.3,-2.47 -10.15,-2.47 -6.29,0 -11.42,2.13 -15.34,6.38 -3.93,4.25 -5.89,9.81 -5.89,16.68 0,6.47 2,11.79 5.98,15.95 3.98,4.15 9.07,6.22 15.24,6.22 5.44,0 9.97,-1.64 13.58,-4.95 3.62,-3.3 5.63,-7.6 6.02,-12.88l-15.48 0 0 -5.77zm54.7 11.38c0,-3.83 -1.05,-6.92 -3.13,-9.24 -2.09,-2.34 -4.81,-3.51 -8.17,-3.51 -3.48,0 -6.2,1.08 -8.15,3.23 -1.96,2.15 -2.93,5.15 -2.93,9 0,4.1 0.98,7.26 2.94,9.48 1.96,2.22 4.76,3.34 8.36,3.34 3.46,0 6.18,-1.08 8.13,-3.24 1.97,-2.16 2.95,-5.19 2.95,-9.06zm5.62 -17.3l0 33.92 -5.62 0 0 -6.15c-1.35,2.47 -3.1,4.35 -5.21,5.64 -2.11,1.31 -4.48,1.95 -7.09,1.95 -4.86,0 -8.79,-1.67 -11.77,-5.02 -2.97,-3.35 -4.46,-7.78 -4.46,-13.29 0,-5.58 1.44,-10.02 4.34,-13.32 2.88,-3.3 6.75,-4.94 11.6,-4.94 2.83,0 5.29,0.63 7.38,1.91 2.09,1.27 3.78,3.18 5.06,5.7l0 -6.4 5.77 0zm56.2 33.92l0 -19.97c0,-3.44 -0.69,-5.98 -2.07,-7.65 -1.38,-1.67 -3.51,-2.5 -6.36,-2.5 -1.56,0 -3,0.31 -4.32,0.94 -1.31,0.64 -2.44,1.52 -3.35,2.68 -0.66,0.89 -1.14,1.93 -1.44,3.12 -0.29,1.18 -0.44,3.13 -0.44,5.85l0 17.53 -5.62 0 0 -19.97c0,-3.44 -0.69,-5.98 -2.07,-7.65 -1.38,-1.67 -3.51,-2.5 -6.36,-2.5 -1.56,0 -3.01,0.31 -4.35,0.94 -1.35,0.64 -2.47,1.52 -3.39,2.68 -0.64,0.88 -1.1,1.88 -1.38,3 -0.29,1.14 -0.43,3.14 -0.43,5.97l0 17.53 -5.62 0 0 -33.92 5.69 0 0 5.24c1.41,-2.18 3.09,-3.8 5.04,-4.86 1.94,-1.06 4.2,-1.59 6.74,-1.59 2.74,0 5.08,0.58 7,1.75 1.93,1.18 3.38,2.9 4.38,5.14 1.46,-2.31 3.18,-4.05 5.16,-5.19 2,-1.13 4.3,-1.7 6.92,-1.7 3.78,0 6.73,1.06 8.85,3.18 2.13,2.13 3.19,5.09 3.19,8.87l0 23.08 -5.77 0zm38.63 -20.79c-0.21,-2.99 -1.19,-5.29 -2.99,-6.91 -1.78,-1.62 -4.23,-2.42 -7.35,-2.42 -2.82,0 -5.17,0.84 -7.04,2.54 -1.89,1.68 -2.97,3.94 -3.26,6.79l20.64 0zm6.22 4.7l-26.86 0 0 0.52c0,3.63 1.03,6.57 3.11,8.81 2.07,2.23 4.78,3.35 8.12,3.35 2.26,0 4.32,-0.61 6.14,-1.84 1.84,-1.21 3.46,-3.06 4.86,-5.52l4.4 2.96c-1.69,3.06 -3.87,5.37 -6.51,6.93 -2.64,1.55 -5.71,2.32 -9.2,2.32 -5.16,0 -9.33,-1.7 -12.52,-5.11 -3.18,-3.41 -4.78,-7.89 -4.78,-13.42 0,-5.31 1.58,-9.66 4.74,-13.05 3.17,-3.37 7.23,-5.07 12.2,-5.07 5.01,0 8.98,1.61 11.91,4.82 2.92,3.21 4.39,7.6 4.39,13.15l0 1.15z"/>
   </g>
  </g>
 </g>
</svg>
